<?xml version="1.0" encoding="utf-8"?>
<!-- Generator: Adobe Illustrator 25.0.0, SVG Export Plug-In . SVG Version: 6.00 Build 0)  -->
<svg version="1.1" id="Layer_1" xmlns="http://www.w3.org/2000/svg" xmlns:xlink="http://www.w3.org/1999/xlink" x="0px" y="0px"
	 viewBox="0 0 140 45" style="enable-background:new 0 0 140 45;" xml:space="preserve">
<style type="text/css">
	.st0{fill:#FFFFFF;}
	.st1{fill:#F85C1E;}
</style>
<path class="st0" d="M60.1,13.5h-3.5L62.7,31h3.9l6.2-17.5h-3.5l-4.5,13.7h-0.2L60.1,13.5z M79.3,31.3c3.8,0,6.3-2.7,6.3-6.8
	c0-4.1-2.4-6.8-6.3-6.8S73,20.4,73,24.5C73,28.6,75.4,31.3,79.3,31.3z M79.3,28.8c-2.1,0-3.2-1.9-3.2-4.3c0-2.4,1-4.3,3.2-4.3
	c2.1,0,3.1,1.9,3.1,4.3C82.4,26.9,81.4,28.8,79.3,28.8z M88.1,31h3.1V17.9h-3.1V31z M89.7,16.1c1,0,1.8-0.8,1.8-1.7
	c0-0.9-0.8-1.7-1.8-1.7c-1,0-1.8,0.8-1.8,1.7C87.9,15.3,88.7,16.1,89.7,16.1z M100.9,17.9h-2.6v-3.1h-3.1v3.1h-1.9v2.4h1.9v7.3
	c0,2.5,1.8,3.7,4.1,3.6c0.9,0,1.5-0.2,1.8-0.3l-0.5-2.4c-0.2,0-0.5,0.1-0.9,0.1c-0.8,0-1.4-0.3-1.4-1.5v-6.8h2.6V17.9z M111.9,25.5
	c0,2-1.4,3-2.8,3c-1.5,0-2.5-1-2.5-2.7v-7.9h-3.1v8.3c0,3.1,1.8,4.9,4.4,4.9c2,0,3.3-1,3.9-2.5h0.1V31h3V17.9h-3.1V25.5z M118.1,31
	h3.1v-7.7c0-1.7,1.3-2.8,2.9-2.8c0.5,0,1.2,0.1,1.4,0.2v-2.8c-0.3-0.1-0.8-0.1-1.1-0.1c-1.5,0-2.8,0.9-3.2,2.4h-0.1v-2.2h-3V31z
	 M132.9,31.3c3.1,0,5.1-1.5,5.7-3.8l-2.9-0.3c-0.4,1.1-1.4,1.7-2.8,1.7c-2,0-3.3-1.3-3.3-3.6h9.1v-0.9c0-4.6-2.8-6.6-6-6.6
	c-3.8,0-6.2,2.8-6.2,6.8C126.5,28.6,128.9,31.3,132.9,31.3z M129.6,23.2c0.1-1.7,1.3-3.1,3.2-3.1c1.8,0,3,1.3,3,3.1H129.6z"/>
<circle class="st1" cx="22.5" cy="22.5" r="22.5"/>
<path class="st0" d="M30.4,20.8l-2.2-5.1C28,15.3,27.6,15,27.1,15h-9.2c-0.5,0-0.9,0.3-1.1,0.7l-2.2,5.1c-1,0.4-1.6,1.4-1.6,2.5v3.2
	c0,0.7,0.5,1.2,1.2,1.2h0.4v2c0,0.7,0.5,1.2,1.2,1.2h1.6c0.7,0,1.2-0.5,1.2-1.2v-2h7.9v2c0,0.7,0.5,1.2,1.2,1.2h1.6
	c0.7,0,1.2-0.5,1.2-1.2v-2h0.4c0.7,0,1.2-0.5,1.2-1.2v-3.2C32,22.2,31.3,21.2,30.4,20.8z M17.5,16c0.1-0.1,0.2-0.2,0.4-0.2h9.2
	c0.2,0,0.3,0.1,0.4,0.2l1.9,4.5c-0.1,0-0.1,0-0.2,0H15.8c-0.1,0-0.1,0-0.2,0L17.5,16z M17.8,29.6c0,0.2-0.2,0.4-0.4,0.4h-1.6
	c-0.2,0-0.4-0.2-0.4-0.4v-2h2.4V29.6z M29.2,30h-1.6c-0.2,0-0.4-0.2-0.4-0.4v-2h2.4v2h0C29.6,29.9,29.4,30,29.2,30z M30.8,26.9H30
	h-3.2h-8.7H15h-0.8c-0.2,0-0.4-0.2-0.4-0.4v-3.2c0-1.1,0.9-2,2-2h13.5c1.1,0,2,0.9,2,2v3.2h0C31.2,26.7,31,26.9,30.8,26.9z"/>
</svg>
